<mxfile host="app.diagrams.net" modified="2024-01-03T01:36:41.443Z" agent="Mozilla/5.0 (X11; Ubuntu; Linux x86_64; rv:109.0) Gecko/20100101 Firefox/116.0" etag="ap2thQ7aVelUN0b4wCNV" version="22.1.16" type="github">
  <diagram name="Page-1" id="Gt1Ale_o17sa32FU888b">
    <mxGraphModel dx="3765" dy="1420" grid="1" gridSize="10" guides="1" tooltips="1" connect="1" arrows="1" fold="1" page="1" pageScale="1" pageWidth="980" pageHeight="1390" math="0" shadow="0">
      <root>
        <mxCell id="0" />
        <mxCell id="1" parent="0" />
        <mxCell id="uo5J4ipbNkgnf-ojrM5Z-66" value="" style="outlineConnect=0;dashed=0;verticalLabelPosition=bottom;verticalAlign=top;align=center;html=1;shape=mxgraph.aws3.ec2;fillColor=#F58534;gradientColor=none;" vertex="1" parent="1">
          <mxGeometry x="-56.25" y="860" width="180" height="223" as="geometry" />
        </mxCell>
        <mxCell id="uo5J4ipbNkgnf-ojrM5Z-55" value="" style="aspect=fixed;sketch=0;html=1;dashed=0;whitespace=wrap;fillColor=#2875E2;strokeColor=#ffffff;points=[[0.005,0.63,0],[0.1,0.2,0],[0.9,0.2,0],[0.5,0,0],[0.995,0.63,0],[0.72,0.99,0],[0.5,1,0],[0.28,0.99,0]];shape=mxgraph.kubernetes.icon2;prIcon=api" vertex="1" parent="1">
          <mxGeometry x="-473.75" y="660" width="112.5" height="108" as="geometry" />
        </mxCell>
        <mxCell id="uo5J4ipbNkgnf-ojrM5Z-50" value="" style="strokeWidth=2;html=1;shape=mxgraph.flowchart.terminator;whiteSpace=wrap;fillColor=#ffcc99;strokeColor=#36393d;shadow=0;" vertex="1" parent="1">
          <mxGeometry x="-223.75" y="515" width="100" height="60" as="geometry" />
        </mxCell>
        <mxCell id="uo5J4ipbNkgnf-ojrM5Z-2" value="EC2 API" style="text;html=1;align=center;verticalAlign=middle;whiteSpace=wrap;rounded=1;fillColor=#d5e8d4;strokeColor=#82b366;glass=0;shadow=0;" vertex="1" parent="1">
          <mxGeometry x="-447.5" y="770" width="60" height="30" as="geometry" />
        </mxCell>
        <mxCell id="uo5J4ipbNkgnf-ojrM5Z-7" value="Actor" style="shape=umlActor;verticalLabelPosition=bottom;verticalAlign=top;html=1;outlineConnect=0;fontFamily=Tahoma;fillColor=#008a00;fontColor=#ffffff;strokeColor=#005700;sketch=1;curveFitting=1;jiggle=2;shadow=0;" vertex="1" parent="1">
          <mxGeometry x="-41.25" y="665" width="30" height="60" as="geometry" />
        </mxCell>
        <mxCell id="uo5J4ipbNkgnf-ojrM5Z-11" style="edgeStyle=orthogonalEdgeStyle;rounded=0;orthogonalLoop=1;jettySize=auto;html=1;exitX=0.5;exitY=0.5;exitDx=0;exitDy=0;exitPerimeter=0;entryX=0.995;entryY=0.63;entryDx=0;entryDy=0;entryPerimeter=0;sketch=1;curveFitting=1;jiggle=2;" edge="1" parent="1" source="uo5J4ipbNkgnf-ojrM5Z-45" target="uo5J4ipbNkgnf-ojrM5Z-55">
          <mxGeometry relative="1" as="geometry">
            <mxPoint x="-307.96000000000004" y="703.04" as="targetPoint" />
          </mxGeometry>
        </mxCell>
        <mxCell id="uo5J4ipbNkgnf-ojrM5Z-12" value="User" style="text;html=1;strokeColor=none;fillColor=none;align=center;verticalAlign=middle;whiteSpace=wrap;rounded=0;" vertex="1" parent="1">
          <mxGeometry x="-56.25" y="720" width="60" height="30" as="geometry" />
        </mxCell>
        <mxCell id="uo5J4ipbNkgnf-ojrM5Z-21" style="edgeStyle=orthogonalEdgeStyle;rounded=0;orthogonalLoop=1;jettySize=auto;html=1;exitX=0.5;exitY=1;exitDx=0;exitDy=0;" edge="1" parent="1" source="uo5J4ipbNkgnf-ojrM5Z-13" target="uo5J4ipbNkgnf-ojrM5Z-55">
          <mxGeometry relative="1" as="geometry">
            <mxPoint x="-369.9473684210525" y="660" as="targetPoint" />
          </mxGeometry>
        </mxCell>
        <mxCell id="uo5J4ipbNkgnf-ojrM5Z-13" value="&lt;h1&gt;EC2 API&lt;br&gt;&lt;/h1&gt;&lt;p&gt;it will create a request to the aws ec2 to create a instnce when a user will request it.&lt;br&gt;&lt;/p&gt;" style="text;html=1;strokeColor=#56517e;fillColor=#d0cee2;spacing=5;spacingTop=-20;whiteSpace=wrap;overflow=hidden;rounded=1;glass=1;sketch=1;curveFitting=1;jiggle=2;" vertex="1" parent="1">
          <mxGeometry x="-440" y="480" width="150" height="130" as="geometry" />
        </mxCell>
        <mxCell id="uo5J4ipbNkgnf-ojrM5Z-16" value="EC2" style="text;html=1;align=center;verticalAlign=middle;whiteSpace=wrap;rounded=0;strokeWidth=3;strokeColor=default;sketch=1;curveFitting=1;jiggle=2;fontFamily=Helvetica;fontSize=25;" vertex="1" parent="1">
          <mxGeometry x="-7.5" y="951.5" width="82.5" height="40" as="geometry" />
        </mxCell>
        <mxCell id="uo5J4ipbNkgnf-ojrM5Z-22" value="&lt;h1 style=&quot;font-size: 18px;&quot;&gt;GET DATA API&lt;br&gt;&lt;/h1&gt;&lt;p&gt;This api will fetch data from the instences the user requested from the EC2 instences&lt;br&gt;&lt;/p&gt;" style="text;html=1;strokeColor=#36393d;fillColor=#ffcccc;spacing=5;spacingTop=-20;whiteSpace=wrap;overflow=hidden;rounded=1;glass=1;sketch=1;curveFitting=1;jiggle=2;" vertex="1" parent="1">
          <mxGeometry x="275" y="450" width="140" height="150" as="geometry" />
        </mxCell>
        <mxCell id="uo5J4ipbNkgnf-ojrM5Z-23" style="edgeStyle=orthogonalEdgeStyle;rounded=0;orthogonalLoop=1;jettySize=auto;html=1;" edge="1" parent="1" source="uo5J4ipbNkgnf-ojrM5Z-22" target="uo5J4ipbNkgnf-ojrM5Z-57">
          <mxGeometry relative="1" as="geometry">
            <mxPoint x="318" y="661.04" as="targetPoint" />
          </mxGeometry>
        </mxCell>
        <mxCell id="uo5J4ipbNkgnf-ojrM5Z-25" style="edgeStyle=orthogonalEdgeStyle;rounded=1;orthogonalLoop=1;jettySize=auto;html=1;entryX=0.5;entryY=1;entryDx=0;entryDy=0;entryPerimeter=0;shape=flexArrow;sketch=1;curveFitting=1;jiggle=2;width=1.0526315789473684;endSize=8.56842105263158;" edge="1" parent="1" source="uo5J4ipbNkgnf-ojrM5Z-58" target="uo5J4ipbNkgnf-ojrM5Z-57">
          <mxGeometry relative="1" as="geometry">
            <mxPoint x="110" y="941" as="sourcePoint" />
            <mxPoint x="344.03999999999996" y="741.04" as="targetPoint" />
          </mxGeometry>
        </mxCell>
        <mxCell id="uo5J4ipbNkgnf-ojrM5Z-27" value="" style="endArrow=classic;html=1;rounded=0;exitX=0.72;exitY=0.99;exitDx=0;exitDy=0;exitPerimeter=0;sketch=1;curveFitting=1;jiggle=2;" edge="1" parent="1" source="uo5J4ipbNkgnf-ojrM5Z-55" target="uo5J4ipbNkgnf-ojrM5Z-66">
          <mxGeometry relative="1" as="geometry">
            <mxPoint x="-361.48" y="741.4399999999998" as="sourcePoint" />
            <mxPoint x="-51.700000000000045" y="924" as="targetPoint" />
          </mxGeometry>
        </mxCell>
        <mxCell id="uo5J4ipbNkgnf-ojrM5Z-28" value="Label" style="edgeLabel;resizable=0;html=1;align=center;verticalAlign=middle;" connectable="0" vertex="1" parent="uo5J4ipbNkgnf-ojrM5Z-27">
          <mxGeometry relative="1" as="geometry">
            <mxPoint x="6" y="11" as="offset" />
          </mxGeometry>
        </mxCell>
        <mxCell id="uo5J4ipbNkgnf-ojrM5Z-29" value="&lt;div style=&quot;font-size: 18px;&quot;&gt;API request&lt;/div&gt;" style="edgeLabel;html=1;align=center;verticalAlign=middle;resizable=0;points=[];fontSize=18;" vertex="1" connectable="0" parent="uo5J4ipbNkgnf-ojrM5Z-27">
          <mxGeometry x="-0.0064" y="4" relative="1" as="geometry">
            <mxPoint x="6" y="11" as="offset" />
          </mxGeometry>
        </mxCell>
        <mxCell id="uo5J4ipbNkgnf-ojrM5Z-31" value="&lt;div&gt;Json response with the user details like &lt;br&gt;&lt;/div&gt;&lt;div&gt;&lt;br&gt;&lt;/div&gt;" style="text;html=1;strokeColor=none;fillColor=none;align=center;verticalAlign=middle;whiteSpace=wrap;rounded=0;" vertex="1" parent="1">
          <mxGeometry x="270" y="840" width="140" height="50" as="geometry" />
        </mxCell>
        <mxCell id="uo5J4ipbNkgnf-ojrM5Z-33" value="" style="edgeStyle=orthogonalEdgeStyle;rounded=1;orthogonalLoop=1;jettySize=auto;html=1;shape=flexArrow;shadow=0;sketch=1;curveFitting=1;jiggle=2;exitX=1;exitY=0.5;exitDx=0;exitDy=0;exitPerimeter=0;" edge="1" parent="1" source="uo5J4ipbNkgnf-ojrM5Z-66" target="uo5J4ipbNkgnf-ojrM5Z-32">
          <mxGeometry relative="1" as="geometry">
            <mxPoint x="110" y="941" as="sourcePoint" />
            <mxPoint x="250" y="1100" as="targetPoint" />
          </mxGeometry>
        </mxCell>
        <mxCell id="uo5J4ipbNkgnf-ojrM5Z-32" value="&lt;div&gt;USername&lt;/div&gt;&lt;div&gt;server status&lt;/div&gt;&lt;div&gt;storage left&lt;/div&gt;&lt;div&gt;ram usage &lt;br&gt;&lt;/div&gt;&lt;div&gt;cpu usage &lt;br&gt;&lt;/div&gt;&lt;div&gt;etc.&lt;br&gt;&lt;/div&gt;" style="text;strokeColor=none;fillColor=none;align=left;verticalAlign=middle;spacingLeft=4;spacingRight=4;overflow=hidden;points=[[0,0.5],[1,0.5]];portConstraint=eastwest;rotatable=0;whiteSpace=wrap;html=1;" vertex="1" parent="1">
          <mxGeometry x="300" y="860" width="90" height="120" as="geometry" />
        </mxCell>
        <mxCell id="uo5J4ipbNkgnf-ojrM5Z-34" value="" style="endArrow=classic;html=1;rounded=0;exitX=0.005;exitY=0.63;exitDx=0;exitDy=0;exitPerimeter=0;entryX=0.5;entryY=0;entryDx=0;entryDy=0;entryPerimeter=0;sketch=1;curveFitting=1;jiggle=2;" edge="1" parent="1" source="uo5J4ipbNkgnf-ojrM5Z-57" target="uo5J4ipbNkgnf-ojrM5Z-66">
          <mxGeometry relative="1" as="geometry">
            <mxPoint x="309.1199999999999" y="732" as="sourcePoint" />
            <mxPoint x="102.19999999999982" y="900" as="targetPoint" />
            <Array as="points">
              <mxPoint x="240" y="770" />
            </Array>
          </mxGeometry>
        </mxCell>
        <mxCell id="uo5J4ipbNkgnf-ojrM5Z-35" value="&lt;font style=&quot;font-size: 14px;&quot;&gt;APi request to grt data&lt;/font&gt;" style="edgeLabel;resizable=0;html=1;align=center;verticalAlign=middle;" connectable="0" vertex="1" parent="uo5J4ipbNkgnf-ojrM5Z-34">
          <mxGeometry relative="1" as="geometry" />
        </mxCell>
        <mxCell id="uo5J4ipbNkgnf-ojrM5Z-53" style="edgeStyle=orthogonalEdgeStyle;rounded=0;orthogonalLoop=1;jettySize=auto;html=1;exitX=0;exitY=0.5;exitDx=0;exitDy=0;entryX=0.5;entryY=0.5;entryDx=0;entryDy=0;entryPerimeter=0;sketch=1;curveFitting=1;jiggle=2;" edge="1" parent="1" source="uo5J4ipbNkgnf-ojrM5Z-36" target="uo5J4ipbNkgnf-ojrM5Z-7">
          <mxGeometry relative="1" as="geometry">
            <mxPoint x="208" y="250" as="sourcePoint" />
            <Array as="points">
              <mxPoint x="208" y="315" />
              <mxPoint x="208" y="690" />
              <mxPoint x="4" y="690" />
              <mxPoint x="4" y="695" />
            </Array>
          </mxGeometry>
        </mxCell>
        <mxCell id="uo5J4ipbNkgnf-ojrM5Z-36" value="" style="rounded=1;whiteSpace=wrap;html=1;glass=1;sketch=1;curveFitting=1;jiggle=2;" vertex="1" parent="1">
          <mxGeometry x="590" y="250" width="236" height="130" as="geometry" />
        </mxCell>
        <mxCell id="uo5J4ipbNkgnf-ojrM5Z-37" value="&lt;font style=&quot;font-size: 19px;&quot;&gt;Website&lt;/font&gt;" style="text;html=1;strokeColor=#B09500;fillColor=#e3c800;align=center;verticalAlign=middle;whiteSpace=wrap;rounded=1;fontColor=#000000;sketch=1;curveFitting=1;jiggle=2;glass=1;" vertex="1" parent="1">
          <mxGeometry x="673" y="295" width="70" height="40" as="geometry" />
        </mxCell>
        <mxCell id="uo5J4ipbNkgnf-ojrM5Z-38" value="" style="shape=datastore;whiteSpace=wrap;html=1;sketch=1;curveFitting=1;jiggle=2;" vertex="1" parent="1">
          <mxGeometry x="-240" y="190" width="90" height="130" as="geometry" />
        </mxCell>
        <mxCell id="uo5J4ipbNkgnf-ojrM5Z-39" value="&lt;font style=&quot;font-size: 16px;&quot;&gt;USer Database&lt;/font&gt;" style="text;html=1;strokeColor=#b46504;fillColor=#fad7ac;align=center;verticalAlign=middle;whiteSpace=wrap;rounded=1;glass=1;sketch=1;curveFitting=1;jiggle=2;" vertex="1" parent="1">
          <mxGeometry x="-232.5" y="250" width="75" height="40" as="geometry" />
        </mxCell>
        <mxCell id="uo5J4ipbNkgnf-ojrM5Z-67" style="edgeStyle=orthogonalEdgeStyle;rounded=0;orthogonalLoop=1;jettySize=auto;html=1;exitX=0;exitY=0.5;exitDx=0;exitDy=0;" edge="1" parent="1" source="uo5J4ipbNkgnf-ojrM5Z-43">
          <mxGeometry relative="1" as="geometry">
            <mxPoint x="-100.36842105263145" y="495.1578947368421" as="targetPoint" />
          </mxGeometry>
        </mxCell>
        <mxCell id="uo5J4ipbNkgnf-ojrM5Z-43" value="Cheak if the Username is in the DB" style="text;strokeColor=none;fillColor=none;align=left;verticalAlign=middle;spacingLeft=4;spacingRight=4;overflow=hidden;points=[[0,0.5],[1,0.5]];portConstraint=eastwest;rotatable=0;whiteSpace=wrap;html=1;" vertex="1" parent="1">
          <mxGeometry x="-100" y="480" width="80" height="30" as="geometry" />
        </mxCell>
        <mxCell id="uo5J4ipbNkgnf-ojrM5Z-44" value="" style="edgeStyle=orthogonalEdgeStyle;rounded=0;orthogonalLoop=1;jettySize=auto;html=1;exitX=0.5;exitY=0.5;exitDx=0;exitDy=0;exitPerimeter=0;entryX=1.017;entryY=0.538;entryDx=0;entryDy=0;entryPerimeter=0;sketch=1;curveFitting=1;jiggle=2;" edge="1" parent="1" source="uo5J4ipbNkgnf-ojrM5Z-7" target="uo5J4ipbNkgnf-ojrM5Z-45">
          <mxGeometry relative="1" as="geometry">
            <mxPoint x="-26" y="695" as="sourcePoint" />
            <mxPoint x="-308" y="703" as="targetPoint" />
          </mxGeometry>
        </mxCell>
        <mxCell id="uo5J4ipbNkgnf-ojrM5Z-45" value="" style="strokeWidth=2;html=1;shape=mxgraph.flowchart.terminator;whiteSpace=wrap;fillColor=#ffcc99;strokeColor=#36393d;shadow=0;" vertex="1" parent="1">
          <mxGeometry x="-223.75" y="670" width="100" height="60" as="geometry" />
        </mxCell>
        <mxCell id="uo5J4ipbNkgnf-ojrM5Z-46" value="&lt;font style=&quot;font-size: 33px;&quot;&gt;1&lt;/font&gt;" style="text;html=1;strokeColor=none;fillColor=none;align=center;verticalAlign=middle;whiteSpace=wrap;rounded=0;" vertex="1" parent="1">
          <mxGeometry x="-203.75" y="685" width="60" height="30" as="geometry" />
        </mxCell>
        <mxCell id="uo5J4ipbNkgnf-ojrM5Z-47" style="edgeStyle=orthogonalEdgeStyle;rounded=0;orthogonalLoop=1;jettySize=auto;html=1;exitX=1;exitY=0.5;exitDx=0;exitDy=0;entryX=0.604;entryY=1.019;entryDx=0;entryDy=0;entryPerimeter=0;sketch=1;curveFitting=1;jiggle=2;" edge="1" parent="1" source="uo5J4ipbNkgnf-ojrM5Z-43" target="uo5J4ipbNkgnf-ojrM5Z-38">
          <mxGeometry relative="1" as="geometry">
            <Array as="points">
              <mxPoint x="-10" y="495" />
              <mxPoint x="-10" y="400" />
              <mxPoint x="-186" y="400" />
            </Array>
          </mxGeometry>
        </mxCell>
        <mxCell id="uo5J4ipbNkgnf-ojrM5Z-49" value="&lt;font style=&quot;font-size: 27px;&quot;&gt;2&lt;/font&gt;" style="text;html=1;strokeColor=none;fillColor=none;align=center;verticalAlign=middle;whiteSpace=wrap;rounded=0;" vertex="1" parent="1">
          <mxGeometry x="-203.75" y="530" width="60" height="30" as="geometry" />
        </mxCell>
        <mxCell id="uo5J4ipbNkgnf-ojrM5Z-51" style="edgeStyle=orthogonalEdgeStyle;rounded=0;orthogonalLoop=1;jettySize=auto;html=1;entryX=0.5;entryY=1;entryDx=0;entryDy=0;entryPerimeter=0;exitX=0.9;exitY=0.2;exitDx=0;exitDy=0;exitPerimeter=0;" edge="1" parent="1" source="uo5J4ipbNkgnf-ojrM5Z-55" target="uo5J4ipbNkgnf-ojrM5Z-50">
          <mxGeometry relative="1" as="geometry">
            <mxPoint x="-340" y="670" as="sourcePoint" />
            <Array as="points">
              <mxPoint x="-372" y="660" />
              <mxPoint x="-260" y="660" />
              <mxPoint x="-260" y="640" />
              <mxPoint x="-174" y="640" />
            </Array>
          </mxGeometry>
        </mxCell>
        <mxCell id="uo5J4ipbNkgnf-ojrM5Z-52" style="edgeStyle=orthogonalEdgeStyle;rounded=0;orthogonalLoop=1;jettySize=auto;html=1;exitX=0;exitY=0.5;exitDx=0;exitDy=0;entryX=0.5;entryY=0;entryDx=0;entryDy=0;entryPerimeter=0;" edge="1" parent="1" source="uo5J4ipbNkgnf-ojrM5Z-43" target="uo5J4ipbNkgnf-ojrM5Z-50">
          <mxGeometry relative="1" as="geometry" />
        </mxCell>
        <mxCell id="uo5J4ipbNkgnf-ojrM5Z-56" value="" style="aspect=fixed;sketch=0;html=1;dashed=0;whitespace=wrap;fillColor=#2875E2;strokeColor=#ffffff;points=[[0.005,0.63,0],[0.1,0.2,0],[0.9,0.2,0],[0.5,0,0],[0.995,0.63,0],[0.72,0.99,0],[0.5,1,0],[0.28,0.99,0]];shape=mxgraph.kubernetes.icon2;kubernetesLabel=1;prIcon=api" vertex="1" parent="1">
          <mxGeometry x="-469.58" y="664" width="104.17" height="100" as="geometry" />
        </mxCell>
        <mxCell id="uo5J4ipbNkgnf-ojrM5Z-73" style="edgeStyle=orthogonalEdgeStyle;rounded=0;orthogonalLoop=1;jettySize=auto;html=1;exitX=0.995;exitY=0.63;exitDx=0;exitDy=0;exitPerimeter=0;entryX=0.5;entryY=1;entryDx=0;entryDy=0;" edge="1" parent="1" source="uo5J4ipbNkgnf-ojrM5Z-57" target="uo5J4ipbNkgnf-ojrM5Z-63">
          <mxGeometry relative="1" as="geometry" />
        </mxCell>
        <mxCell id="uo5J4ipbNkgnf-ojrM5Z-57" value="" style="aspect=fixed;sketch=0;html=1;dashed=0;whitespace=wrap;fillColor=#2875E2;strokeColor=#ffffff;points=[[0.005,0.63,0],[0.1,0.2,0],[0.9,0.2,0],[0.5,0,0],[0.995,0.63,0],[0.72,0.99,0],[0.5,1,0],[0.28,0.99,0]];shape=mxgraph.kubernetes.icon2;kubernetesLabel=1;prIcon=api" vertex="1" parent="1">
          <mxGeometry x="288.4899999999999" y="645.75" width="113.03" height="108.5" as="geometry" />
        </mxCell>
        <mxCell id="uo5J4ipbNkgnf-ojrM5Z-60" value="" style="edgeStyle=orthogonalEdgeStyle;rounded=1;orthogonalLoop=1;jettySize=auto;html=1;entryX=0.5;entryY=1;entryDx=0;entryDy=0;entryPerimeter=0;shape=flexArrow;sketch=1;curveFitting=1;jiggle=2;width=1.0526315789473684;endSize=8.56842105263158;" edge="1" parent="1" source="uo5J4ipbNkgnf-ojrM5Z-31" target="uo5J4ipbNkgnf-ojrM5Z-58">
          <mxGeometry relative="1" as="geometry">
            <mxPoint x="340" y="840" as="sourcePoint" />
            <mxPoint x="345" y="754" as="targetPoint" />
          </mxGeometry>
        </mxCell>
        <mxCell id="uo5J4ipbNkgnf-ojrM5Z-58" value="GET DATA API" style="text;html=1;strokeColor=#36393d;fillColor=#cdeb8b;align=center;verticalAlign=middle;whiteSpace=wrap;rounded=1;" vertex="1" parent="1">
          <mxGeometry x="315" y="720" width="60" height="30" as="geometry" />
        </mxCell>
        <mxCell id="uo5J4ipbNkgnf-ojrM5Z-63" value="PROVIDE the stats via ui" style="text;html=1;strokeColor=#36393d;fillColor=#f9f7ed;align=center;verticalAlign=middle;whiteSpace=wrap;rounded=1;glass=1;sketch=1;curveFitting=1;jiggle=2;" vertex="1" parent="1">
          <mxGeometry x="730" y="502.5" width="81.51" height="45" as="geometry" />
        </mxCell>
        <mxCell id="uo5J4ipbNkgnf-ojrM5Z-70" style="edgeStyle=orthogonalEdgeStyle;rounded=0;orthogonalLoop=1;jettySize=auto;html=1;" edge="1" parent="1" source="uo5J4ipbNkgnf-ojrM5Z-68">
          <mxGeometry relative="1" as="geometry">
            <mxPoint x="-480" y="980" as="targetPoint" />
            <Array as="points">
              <mxPoint x="-480" y="230" />
            </Array>
          </mxGeometry>
        </mxCell>
        <mxCell id="uo5J4ipbNkgnf-ojrM5Z-77" style="edgeStyle=orthogonalEdgeStyle;rounded=0;orthogonalLoop=1;jettySize=auto;html=1;entryX=0.113;entryY=-0.129;entryDx=0;entryDy=0;entryPerimeter=0;" edge="1" parent="1" source="uo5J4ipbNkgnf-ojrM5Z-68" target="uo5J4ipbNkgnf-ojrM5Z-43">
          <mxGeometry relative="1" as="geometry">
            <mxPoint x="-330" y="440" as="targetPoint" />
            <Array as="points">
              <mxPoint x="-350" y="230" />
              <mxPoint x="-350" y="440" />
              <mxPoint x="-91" y="440" />
            </Array>
          </mxGeometry>
        </mxCell>
        <mxCell id="uo5J4ipbNkgnf-ojrM5Z-68" value="" style="sketch=0;outlineConnect=0;fontColor=#232F3E;gradientColor=none;fillColor=#ED7100;strokeColor=none;dashed=0;verticalLabelPosition=bottom;verticalAlign=top;align=center;html=1;fontSize=12;fontStyle=0;aspect=fixed;pointerEvents=1;shape=mxgraph.aws4.elastic_ip_address;rotation=-180;" vertex="1" parent="1">
          <mxGeometry x="-400" y="220" width="48" height="20" as="geometry" />
        </mxCell>
        <mxCell id="uo5J4ipbNkgnf-ojrM5Z-74" style="edgeStyle=orthogonalEdgeStyle;rounded=0;orthogonalLoop=1;jettySize=auto;html=1;exitX=0.5;exitY=0;exitDx=0;exitDy=0;entryX=0.689;entryY=1.029;entryDx=0;entryDy=0;entryPerimeter=0;" edge="1" parent="1" source="uo5J4ipbNkgnf-ojrM5Z-63" target="uo5J4ipbNkgnf-ojrM5Z-36">
          <mxGeometry relative="1" as="geometry" />
        </mxCell>
        <mxCell id="uo5J4ipbNkgnf-ojrM5Z-75" value="" style="endArrow=classic;startArrow=classic;html=1;rounded=0;" edge="1" parent="1">
          <mxGeometry width="50" height="50" relative="1" as="geometry">
            <mxPoint x="-480" y="980" as="sourcePoint" />
            <mxPoint x="-60" y="980" as="targetPoint" />
          </mxGeometry>
        </mxCell>
        <mxCell id="uo5J4ipbNkgnf-ojrM5Z-76" value="&lt;div style=&quot;font-size: 15px;&quot;&gt;Create Ec2 by&amp;nbsp;&lt;/div&gt;&lt;div style=&quot;font-size: 15px;&quot;&gt;the username of the user&lt;/div&gt;" style="edgeLabel;html=1;align=center;verticalAlign=middle;resizable=0;points=[];labelBackgroundColor=#4079FF;spacing=45;fontSize=15;" vertex="1" connectable="0" parent="uo5J4ipbNkgnf-ojrM5Z-75">
          <mxGeometry x="-0.1748" y="4" relative="1" as="geometry">
            <mxPoint as="offset" />
          </mxGeometry>
        </mxCell>
        <mxCell id="uo5J4ipbNkgnf-ojrM5Z-78" value="&lt;h2 style=&quot;font-size: 25px;&quot;&gt;&lt;font style=&quot;background-color: rgb(34, 255, 0); font-size: 21px;&quot;&gt;IF YES&lt;/font&gt;&lt;/h2&gt;" style="rounded=0;whiteSpace=wrap;html=1;" vertex="1" parent="1">
          <mxGeometry x="-387" y="330" width="117" height="50" as="geometry" />
        </mxCell>
      </root>
    </mxGraphModel>
  </diagram>
</mxfile>
